
Genre:Action | Fantasy | Horror
Language:English
IMDb:http://www.imdb.com/title/tt1428538/
Source:Matine Thanks
Encoder:Tony


Format : AVI
Format/Info : Audio Video Interleave
File size : 1 006 MiB
Duration : 1h 20mn
Overall bit rate : 1 754 Kbps

Video
ID : 0
Format : MPEG-4 Visual
Format profile : Advanced Simple@L5
Format settings, BVOP : 1
Format settings, QPel : No
Format settings, GMC : No warppoints
Format settings, Matrix : Default (H.263)
Codec ID : XVID
Codec ID/Hint : XviD
Duration : 1h 20mn
Bit rate : 1 582 Kbps
Width : 640 pixels
Height : 304 pixels
Display aspect ratio : 2.2:1
Frame rate : 29.970 fps
Color space : YUV
Chroma subsampling : 4:2:0
Bit depth : 8 bits
Scan type : Progressive
Compression mode : Lossy
Bits/(Pixel*Frame) : 0.271
Stream size : 908 MiB (90%)
Writing library : XviD 1.2.1 (UTC 2008-12-04)

Audio
ID : 1
Format : AC-3
Format/Info : Audio Coding 3
Mode extension : CM (complete main)
Codec ID : 2000
Duration : 1h 20mn
Bit rate mode : Constant
Bit rate : 160 Kbps
Channel(s) : 2 channels
Channel positions : Front: L R
Sampling rate : 48.0 KHz
Bit depth : 16 bits
Compression mode : Lossy
Stream size : 91.8 MiB (9%)
Alignment : Aligned on interleaves
Interleave, duration : 33 ms (1.00 video frame)
Interleave, preload duration : 512 ms


Plot:
In this spin on the fairy tale, Hansel & Gretel are now bounty hunters who track and kill witches all over the world. As the fabled Blood Moon approaches, the siblings encounter a new form of evil that might hold a secret to their past.
 
http://img820.imageshack.us/img820/4577/vlcsnap2012111711h38m01.png
 
http://img37.imageshack.us/img37/4748/vlcsnap2012111711h38m08.png
 
http://img341.imageshack.us/img341/6724/vlcsnap2012111711h38m51.png
 
http://img717.imageshack.us/img717/5352/vlcsnap2012111711h38m45.png
 
http://img12.imageshack.us/img12/4337/vlcsnap2012111711h46m53.png

Greets:
CRYS,INSPiRAL,IMAGINE,LKRG,ADTRG,FXG,3Li,FLAWL3SS,CrEwSaDe,TA,iLLUSiON,EMBER,HOPE,GooN,BBnRG,NOGRP,ETRG,BHRG,iLLUMiNATi,MiSTERE.ViSiON,DTRG SAFCuk009,LU,TheFalcon007,MYSTiC,PrisM,Noir,WBZ,LAP,Rx,Kingdom,SAFCuk009+Fabreezy,HDLiTE,TWiZTED,ETRG.ELEKTRI4KA,MAGNAT,CM8
And to all the other p2p grps past and present
Make sure its a real Feel-Free release @ http://extratorrent
Thanks to all who promotes release Feel-Free !!!